<?xml version="1.0" standalone="no"?>
<!DOCTYPE svg PUBLIC "-//W3C//DTD SVG 20010904//EN"
 "http://www.w3.org/TR/2001/REC-SVG-20010904/DTD/svg10.dtd">
<svg version="1.0" xmlns="http://www.w3.org/2000/svg"
 width="50px" height="50px" viewBox="0 0 1053.000000 1280.000000"
 preserveAspectRatio="xMidYMid meet">
<metadata>
Created by potrace 1.15, written by Peter Selinger 2001-2017
</metadata>
<g transform="translate(0.000000,1280.000000) scale(0.100000,-0.100000)"
fill="#ffffff" stroke="none">
<path d="M7690 12790 c20 -13 33 -13 25 0 -3 6 -14 10 -23 10 -15 0 -15 -2 -2
-10z"/>
<path d="M5210 11989 c-115 -8 -160 -16 -265 -52 -159 -55 -319 -160 -440
-289 -83 -89 -125 -153 -182 -277 -24 -53 -53 -114 -63 -136 -10 -22 -33 -71
-50 -110 -17 -38 -50 -104 -74 -145 -24 -41 -67 -118 -96 -170 -93 -167 -142
-244 -182 -286 l-39 -41 -112 -11 c-62 -6 -164 -14 -227 -17 l-115 -5 -105 85
c-103 84 -251 188 -340 239 -141 81 -173 97 -255 125 -50 17 -132 35 -183 41
-90 10 -96 9 -182 -19 -48 -17 -116 -43 -151 -60 l-62 -30 -66 34 c-94 47
-164 65 -251 65 -70 0 -78 -2 -114 -32 -49 -40 -64 -76 -72 -174 -8 -98 13
-241 66 -449 55 -213 64 -272 51 -337 -11 -52 -38 -256 -66 -493 -25 -217 -49
-343 -100 -530 -53 -197 -86 -345 -83 -374 l3 -26 23 25 c57 61 115 155 166
270 77 171 79 175 101 175 17 0 20 -8 23 -60 3 -55 -15 -205 -39 -315 -116
-549 -196 -787 -348 -1036 -40 -66 -85 -137 -100 -159 -35 -49 -63 -113 -52
-119 4 -3 30 10 57 28 51 34 117 106 172 187 39 58 176 326 193 377 6 20 15
42 19 47 12 17 76 196 95 268 11 41 23 67 31 67 18 0 18 0 -5 -90 -38 -147
-49 -186 -76 -260 -15 -41 -33 -93 -40 -115 -45 -139 -205 -485 -245 -530 -59
-67 -275 -414 -332 -533 -40 -85 -50 -211 -24 -312 17 -65 77 -172 127 -225
33 -36 45 -66 58 -144 11 -67 52 -166 105 -256 20 -33 46 -77 58 -98 57 -95
179 -216 257 -253 32 -15 35 -15 47 0 13 19 8 38 -70 258 -78 220 -120 452
-117 651 3 164 20 243 88 397 54 123 88 180 107 180 11 0 13 -24 9 -127 -7
-155 14 -317 58 -447 48 -143 128 -270 159 -251 13 8 11 42 -21 280 -24 183
-28 305 -17 450 8 93 15 125 50 210 22 55 55 143 72 195 18 52 60 156 93 230
33 74 77 174 98 223 34 79 59 117 69 106 2 -2 0 -55 -5 -117 -8 -110 -10 -117
-68 -240 -32 -70 -69 -158 -82 -197 -12 -38 -37 -101 -56 -140 -37 -78 -50
-132 -35 -147 26 -26 114 102 252 367 40 77 78 147 85 155 7 8 20 30 30 49 21
42 73 91 97 91 12 0 19 -11 24 -36 8 -44 -1 -254 -16 -389 -30 -251 17 -376
136 -362 24 2 53 12 63 21 10 9 22 16 27 16 5 0 36 -64 68 -142 66 -159 68
-171 47 -333 -23 -172 0 -469 44 -570 158 -368 172 -426 136 -554 -27 -95
-101 -262 -169 -379 -87 -149 -232 -280 -357 -323 -25 -9 -82 -14 -155 -13
-98 0 -126 4 -193 27 -99 35 -162 71 -250 143 -86 72 -141 144 -196 254 -65
130 -117 188 -144 161 -13 -13 -11 -90 4 -156 15 -62 80 -197 120 -247 16 -20
29 -41 29 -47 0 -6 9 -35 21 -66 18 -50 32 -66 116 -135 201 -167 406 -240
638 -227 91 6 125 12 200 40 140 53 256 116 362 199 35 26 69 48 78 48 24 0 8
-53 -51 -170 -70 -140 -275 -469 -384 -615 -36 -50 -87 -122 -113 -160 -65
-99 -215 -278 -300 -358 -208 -196 -230 -220 -276 -314 -33 -66 -37 -107 -18
-162 14 -41 49 -55 117 -46 49 6 168 48 249 89 48 25 51 25 87 10 46 -19 94
-13 131 16 24 18 35 21 84 15 68 -8 103 7 165 69 49 49 122 101 130 93 3 -3
-6 -43 -21 -89 -15 -46 -38 -123 -50 -173 -41 -162 -89 -317 -204 -655 -44
-129 -91 -280 -105 -335 -14 -55 -38 -140 -55 -190 -16 -49 -43 -157 -60 -240
-17 -82 -47 -211 -66 -285 -19 -74 -46 -198 -60 -275 -14 -77 -32 -162 -39
-190 -22 -81 -107 -549 -106 -587 0 -5 404 -8 898 -8 l899 0 55 92 c30 51 81
147 112 213 32 66 67 137 77 157 57 108 243 567 254 625 4 21 18 72 31 113 14
41 34 129 45 195 43 265 52 314 58 322 3 4 31 25 61 45 31 21 69 51 85 68 29
30 30 30 137 30 59 0 108 -4 108 -9 0 -5 -20 -67 -45 -138 -31 -87 -55 -180
-75 -293 -16 -91 -38 -217 -49 -280 -40 -228 -67 -567 -70 -884 -1 -93 -4
-173 -7 -178 -3 -5 -3 -25 0 -44 l7 -34 898 0 898 0 71 288 c110 445 163 742
197 1092 8 85 18 166 21 179 9 43 5 550 -6 660 -6 58 -22 183 -36 278 l-24
171 30 49 c17 28 41 91 56 152 24 98 26 114 22 300 -4 182 -7 201 -31 271 -52
144 -137 296 -234 417 -51 63 -103 138 -117 168 -32 71 -94 153 -181 241 -60
61 -82 93 -129 188 -62 126 -132 225 -235 331 -47 49 -71 82 -78 110 -6 22
-25 90 -42 152 l-31 112 20 113 c11 62 23 174 26 248 5 121 8 141 32 187 15
29 30 53 33 53 4 0 12 -26 18 -58 6 -33 30 -97 52 -143 75 -154 313 -473 417
-557 25 -20 64 -53 86 -72 77 -66 122 -80 113 -35 -8 46 16 21 66 -66 57 -99
79 -124 131 -151 31 -16 52 -19 93 -15 57 6 103 32 284 157 93 64 322 209 409
259 62 35 189 132 268 203 36 33 109 88 161 123 53 35 120 84 149 109 29 25
92 67 140 93 125 67 188 112 260 186 59 60 74 68 205 123 135 56 146 63 215
132 88 88 89 97 27 218 -25 48 -45 92 -45 98 0 6 16 22 35 35 19 13 40 39 47
57 8 23 17 33 28 30 94 -26 361 -36 416 -16 64 25 104 86 104 161 0 25 11 64
26 95 20 40 25 64 22 96 -7 66 39 142 113 186 21 13 43 38 54 61 17 39 17 41
-1 72 -11 18 -38 42 -62 54 l-42 21 31 30 c48 46 62 79 49 118 -21 64 -64 82
-147 61 -32 -7 -33 -6 -33 23 0 41 -23 59 -56 43 -14 -6 -27 -11 -29 -11 -2 0
-21 26 -42 57 -53 80 -133 158 -190 183 -74 34 -201 38 -278 11 -33 -12 -67
-24 -76 -27 -13 -4 -20 18 -43 123 -16 78 -33 135 -44 146 -10 9 -62 28 -116
42 -135 34 -282 34 -511 -1 -250 -38 -397 -93 -534 -199 -95 -73 -93 -68 -81
-175 6 -51 13 -96 15 -100 6 -10 38 -186 65 -360 23 -153 119 -660 126 -671 2
-5 -9 -21 -26 -36 -17 -15 -62 -73 -100 -129 -63 -93 -79 -109 -167 -170 -130
-90 -164 -116 -255 -197 l-78 -69 0 34 c0 64 -19 109 -51 121 -36 14 -44 40
-59 187 -20 188 -70 393 -129 523 -17 38 -46 208 -72 420 -19 158 -29 236 -49
367 -56 385 -69 439 -118 537 -23 45 -16 42 -179 64 l-93 13 6 35 c6 36 -2 57
-39 113 -14 21 -16 31 -8 47 19 35 12 54 -53 151 -63 92 -70 110 -40 110 21 0
17 30 -11 75 -30 49 -31 69 -5 153 20 63 24 69 79 105 33 20 68 37 79 37 12 0
24 5 27 10 3 6 20 10 36 10 60 0 84 23 117 112 18 46 32 88 32 94 0 9 79 263
107 342 14 40 92 143 94 125 1 -4 1 -31 -1 -59 -1 -38 2 -53 13 -57 13 -5 14
-13 4 -59 -15 -63 -11 -98 9 -98 8 0 19 -11 24 -25 10 -27 30 -34 30 -10 0 28
17 15 24 -17 4 -19 10 -28 15 -22 28 27 77 142 102 237 17 64 49 149 80 210
28 56 58 124 66 150 28 96 54 304 60 487 6 199 -8 341 -49 505 -40 162 -222
507 -334 635 -151 172 -166 182 -276 186 -42 1 -84 7 -95 12 -32 16 -114 31
-234 42 -64 5 -156 19 -205 29 -124 26 -297 72 -309 81 -16 12 -165 48 -267
65 -96 15 -158 16 -338 4z m3960 -4421 c0 -7 -27 -40 -59 -73 -100 -103 -104
-104 -116 -24 l-7 47 54 25 c87 40 128 48 128 25z m219 -139 c15 -44 0 -61
-48 -53 -20 4 -38 8 -40 10 -7 6 52 74 64 74 7 0 18 -14 24 -31z m-3129 -1486
c12 -32 25 -78 30 -103 4 -25 17 -89 29 -144 22 -105 27 -186 11 -186 -5 0
-10 12 -10 26 0 15 -20 118 -45 230 -43 195 -50 234 -41 234 3 0 14 -26 26
-57z"/>
<path d="M0 8525 c0 -54 3 -95 6 -92 7 7 6 179 -2 186 -2 2 -4 -40 -4 -94z"/>
</g>
</svg>
